<?xml version="1.0"?>
<svg xmlns:rdf="http://www.w3.org/1999/02/22-rdf-syntax-ns#" xmlns="http://www.w3.org/2000/svg" xmlns:cc="http://creativecommons.org/ns#" xmlns:dc="http://purl.org/dc/elements/1.1/" xmlns:svg="http://www.w3.org/2000/svg" id="svg3977" viewBox="0 0 128 128" version="1.0">
  <g id="layer1" fill-rule="evenodd">
    <path id="path2399" stroke-linejoin="round" d="m72 24.656c-2.216 0-4 1.784-4 4v3.344c0 2.216 1.784 4 4 4h1.25c-0.748 0.504-1.25 1.368-1.25 2.344v24.937c0-2.216-1.784-4-4-4h-20v-21.125c0-1.195-0.961-2.156-2.156-2.156h-11.938c-1.195 0-2.156 0.961-2.156 2.156v21.125h-11.344c-2.216 0-4 1.784-4 4v20.719c0 2.216 1.784 4 4 4h-0.406c-2.216 0-4 1.784-4 4v8c0 2.22 1.784 4 4 4h2.5v0.12c0 6.57 5.31 11.91 11.875 11.91s11.906-5.34 11.906-11.91c0-0.04 0.001-0.08 0-0.12h3.75v0.12c0 6.57 5.342 11.91 11.907 11.91 6.564 0 11.874-5.34 11.874-11.91 0-0.04 0.001-0.08 0-0.12h4.126c1.276 6.97 7.378 12.25 14.718 12.25s13.444-5.28 14.724-12.25h0.62c2.22 0 4-1.78 4-4v-8c0-2.216-1.78-4-4-4h0.34c1.56 0 2.82-1.251 2.82-2.812v-46.844c0-0.976-0.51-1.84-1.25-2.344h2.25c2.21 0 4-1.784 4-4v-3.344c0-2.216-1.79-4-4-4h-40.16z" stroke="#000" stroke-linecap="round" stroke-width="12" fill="#00f"/>
    <path id="path2397" stroke-linejoin="round" d="m81.219 44h21.061c0.98 0 1.75 0.77 1.75 1.75v20.25c0 0.98-0.77 1.781-1.75 1.781h-21.061c-0.98 0-1.75-0.801-1.75-1.781v-20.25c0-0.98 0.77-1.75 1.75-1.75z" stroke="#000" stroke-linecap="round" stroke-width="12" fill="#00f"/>
    <path id="path2395" stroke-linejoin="round" d="m72 84v1.188c0 1.561 1.251 2.812 2.812 2.812h-6.812c2.216 0 4-1.784 4-4z" stroke="#000" stroke-linecap="round" stroke-width="12" fill="#00f"/>
    <rect id="rect4509" stroke-linejoin="round" rx="2.1584" transform="rotate(90)" height="16.259" width="51.801" stroke="#000" stroke-linecap="round" y="-48" x="36" stroke-width="3" fill="#00f"/>
    <rect id="rect3989" stroke-linejoin="round" rx="4" height="16" width="96" stroke="#000" stroke-linecap="round" y="88" x="16" stroke-width="3" fill="#e9c6af"/>
    <rect id="rect4500" stroke-linejoin="round" rx="4" height="28.73" width="55.592" stroke="#000" stroke-linecap="round" y="59.27" x="16.408" stroke-width="3" fill="#0f0"/>
    <rect id="rect4504" stroke-linejoin="round" rx="4" height="11.333" width="48.157" stroke="#000" stroke-linecap="round" y="23.66" x="68" stroke-width="3" fill="#f00"/>
    <path id="rect4511" stroke-linejoin="round" d="m74.812 35.531c-1.561 0-2.812 1.252-2.812 2.813v46.844c0 1.561 1.251 2.812 2.812 2.812h33.528c1.56 0 2.82-1.251 2.82-2.812v-46.844c0-1.561-1.26-2.813-2.82-2.813h-33.528zm6.407 8.469h21.061c0.98 0 1.75 0.77 1.75 1.75v20.25c0 0.98-0.77 1.781-1.75 1.781h-21.061c-0.98 0-1.75-0.801-1.75-1.781v-20.25c0-0.98 0.77-1.75 1.75-1.75z" stroke="#000" stroke-linecap="round" stroke-width="3" fill="#ff0"/>
    <path id="path4513" stroke-linejoin="round" d="m108 110a14 14 0 1 1 -28 0 14 14 0 1 1 28 0z" transform="matrix(1.0695 0 0 1.0695 -7.8749 -16.36)" stroke="#000" stroke-linecap="round" stroke-width="3.7401" fill="#f00"/>
    <path id="path4515" transform="matrix(.53474 0 0 .53474 42.391 42.461)" d="m108 110a14 14 0 1 1 -28 0 14 14 0 1 1 28 0z"/>
    <path id="path4523" stroke-linejoin="round" d="m108 110a14 14 0 1 1 -28 0 14 14 0 1 1 28 0z" transform="matrix(.84945 0 0 .84945 -45.46 10.698)" stroke="#000" stroke-linecap="round" stroke-width="4.7089" fill="#f00"/>
    <path id="path4525" transform="matrix(.42472 0 0 .42472 -5.5363 57.418)" d="m108 110a14 14 0 1 1 -28 0 14 14 0 1 1 28 0z"/>
    <path id="path4529" stroke-linejoin="round" d="m108 110a14 14 0 1 1 -28 0 14 14 0 1 1 28 0z" transform="matrix(.84945 0 0 .84945 -17.921 10.698)" stroke="#000" stroke-linecap="round" stroke-width="4.7089" fill="#f00"/>
    <path id="path4531" transform="matrix(.42472 0 0 .42472 22.003 57.418)" d="m108 110a14 14 0 1 1 -28 0 14 14 0 1 1 28 0z"/>
  </g>
  <metadata>
    <rdf:RDF>
      <cc:Work>
        <dc:format>image/svg+xml</dc:format>
        <dc:type rdf:resource="http://purl.org/dc/dcmitype/StillImage"/>
        <cc:license rdf:resource="http://creativecommons.org/licenses/publicdomain/"/>
        <dc:publisher>
          <cc:Agent rdf:about="http://openclipart.org/">
            <dc:title>Openclipart</dc:title>
          </cc:Agent>
        </dc:publisher>
        <dc:title>Toy train icon</dc:title>
        <dc:date>2009-03-18T12:53:11</dc:date>
        <dc:description>choochoo, choochoo, clip art, clipart, contour, contour, icon, icon, image, locomotive, locomotive, media, png, public domain, svg, toy, toy, train, train, wooden, wooden, </dc:description>
        <dc:source>http://openclipart.org/detail/22533/toy-train-icon-by-pitr</dc:source>
        <dc:creator>
          <cc:Agent>
            <dc:title>pitr</dc:title>
          </cc:Agent>
        </dc:creator>
        <dc:subject>
          <rdf:Bag>
            <rdf:li>choochoo</rdf:li>
            <rdf:li>clip art</rdf:li>
            <rdf:li>clipart</rdf:li>
            <rdf:li>contour</rdf:li>
            <rdf:li>icon</rdf:li>
            <rdf:li>image</rdf:li>
            <rdf:li>locomotive</rdf:li>
            <rdf:li>media</rdf:li>
            <rdf:li>png</rdf:li>
            <rdf:li>public domain</rdf:li>
            <rdf:li>svg</rdf:li>
            <rdf:li>toy</rdf:li>
            <rdf:li>train</rdf:li>
            <rdf:li>wooden</rdf:li>
          </rdf:Bag>
        </dc:subject>
      </cc:Work>
      <cc:License rdf:about="http://creativecommons.org/licenses/publicdomain/">
        <cc:permits rdf:resource="http://creativecommons.org/ns#Reproduction"/>
        <cc:permits rdf:resource="http://creativecommons.org/ns#Distribution"/>
        <cc:permits rdf:resource="http://creativecommons.org/ns#DerivativeWorks"/>
      </cc:License>
    </rdf:RDF>
  </metadata>
</svg>
